<svg width="24" height="24" viewBox="0 0 24 24" fill="none" xmlns="http://www.w3.org/2000/svg">
<g clip-path="url(#clip0_12_811)">
<path d="M23.3187 5.72597C23.2736 5.72442 22.3467 5.69313 20.986 5.7232V2.93345C20.986 2.52221 20.6349 2.19604 20.2214 2.23002C17.5084 2.45651 14.0567 3.65534 12 5.84193C9.94334 3.65534 6.49162 2.45651 3.77859 2.23002C3.36588 2.19642 3.01398 2.52112 3.01398 2.93345V5.79863C2.24089 5.76945 1.50965 5.74889 0.726824 5.72588C0.332 5.71341 0 6.03143 0 6.43143V19.2865C0 19.658 0.287859 19.9659 0.658494 19.9908C3.4664 20.1798 8.16988 20.201 11.7231 21.7165C12.0398 21.8518 12.324 21.6964 12.277 21.7165C15.8301 20.2011 20.5328 20.1799 23.3416 19.9908C23.7122 19.9659 24.0001 19.658 24.0001 19.2865V6.43143C24 6.05115 23.6988 5.73924 23.3187 5.72597ZM19.5743 3.72738V15.8256C17.5387 16.281 14.959 17.2527 12.7059 19.3129C12.7059 18.6915 12.7059 7.51553 12.7059 7.17943C14.2504 5.25237 17.1753 4.09087 19.5743 3.72738ZM4.42574 3.72738C6.82466 4.09087 9.74965 5.25237 11.2941 7.17943V19.3129C9.04104 17.2527 6.46132 16.281 4.42574 15.8256V3.72738ZM1.41176 18.6223V7.1584C1.91722 7.17336 2.45784 7.19026 3.01398 7.21148V16.401C3.01398 16.7406 3.25586 17.0321 3.58965 17.0947C5.20146 17.3973 7.29746 18.0539 9.25097 19.4679C6.46391 18.8428 3.54664 18.7423 1.41176 18.6223ZM22.5882 18.6223C20.4568 18.7421 17.5372 18.8425 14.749 19.4679C16.7025 18.0539 18.7985 17.3973 20.4103 17.0947C20.7441 17.0321 20.986 16.7406 20.986 16.401V7.13543C21.6357 7.12089 22.189 7.1207 22.5882 7.12433V18.6223H22.5882Z" fill="#BF5523"/>
<path d="M9.46386 8.80545C8.91713 8.42456 7.97459 7.95703 6.9687 7.78705C6.58447 7.72183 6.22004 7.98108 6.15506 8.36545C6.09011 8.74983 6.34908 9.11411 6.7335 9.17905C7.51011 9.3103 8.25496 9.68381 8.65684 9.96381C8.97661 10.1866 9.41661 10.1081 9.63953 9.78814C9.86235 9.46828 9.78371 9.02828 9.46386 8.80545Z" fill="#BF5523"/>
<path d="M9.39317 12.7805C8.89016 12.4734 7.9063 11.9344 6.9687 11.7759C6.58447 11.7108 6.22004 11.9699 6.15506 12.3543C6.09011 12.7387 6.34908 13.103 6.7335 13.1679C7.4639 13.2913 8.32221 13.7807 8.65731 13.9854C8.99044 14.1887 9.4247 14.0832 9.62767 13.7509C9.83087 13.4182 9.72588 12.9838 9.39317 12.7805Z" fill="#BF5523"/>
<path d="M15.3432 9.96381C15.7451 9.68381 16.4899 9.31031 17.2665 9.17906C17.6509 9.11412 17.9099 8.74984 17.845 8.36546C17.78 7.98104 17.4156 7.7217 17.0313 7.78706C16.0255 7.95699 15.0829 8.42457 14.5362 8.80546C14.2163 9.02828 14.1377 9.46828 14.3605 9.78814C14.5835 10.1082 15.0236 10.1865 15.3432 9.96381Z" fill="#BF5523"/>
<path d="M17.0313 11.776C16.0937 11.9344 15.1099 12.4734 14.6069 12.7806C14.2742 12.9838 14.1692 13.4182 14.3724 13.7509C14.5756 14.0836 15.01 14.1886 15.3427 13.9854C15.6778 13.7807 16.5361 13.2914 17.2665 13.168C17.6509 13.103 17.9099 12.7388 17.845 12.3544C17.78 11.9699 17.4156 11.7106 17.0313 11.776Z" fill="#BF5523"/>
</g>
<defs>
<clipPath id="clip0_12_811">
<rect width="24" height="24" fill="white"/>
</clipPath>
</defs>
</svg>
